<mxfile host="app.diagrams.net" agent="Mozilla/5.0 (Windows NT 10.0; Win64; x64) AppleWebKit/537.36 (KHTML, like Gecko) Chrome/129.0.0.0 Safari/537.36" version="24.7.16">
  <diagram name="Page-1" id="PZSjXGrZAQiPclHjUj1C">
    <mxGraphModel dx="4011" dy="917" grid="1" gridSize="10" guides="1" tooltips="1" connect="1" arrows="1" fold="1" page="1" pageScale="1" pageWidth="850" pageHeight="1100" math="0" shadow="0">
      <root>
        <mxCell id="0" />
        <mxCell id="1" parent="0" />
        <mxCell id="Rh4NYGwO05SISdUezt3Q-26" value="PerfilDeUsuario" style="rounded=0;whiteSpace=wrap;html=1;" parent="1" vertex="1">
          <mxGeometry x="480" y="1028.75" width="120" height="60" as="geometry" />
        </mxCell>
        <mxCell id="Rh4NYGwO05SISdUezt3Q-31" value="nombre" style="ellipse;whiteSpace=wrap;html=1;" parent="1" vertex="1">
          <mxGeometry x="650" y="1088.75" width="60" height="40" as="geometry" />
        </mxCell>
        <mxCell id="Rh4NYGwO05SISdUezt3Q-32" value="contraseÃ±a" style="ellipse;whiteSpace=wrap;html=1;" parent="1" vertex="1">
          <mxGeometry x="550" y="1118.75" width="80" height="50" as="geometry" />
        </mxCell>
        <mxCell id="Rh4NYGwO05SISdUezt3Q-33" value="fechaNac" style="ellipse;whiteSpace=wrap;html=1;" parent="1" vertex="1">
          <mxGeometry x="660" y="1016.25" width="80" height="50" as="geometry" />
        </mxCell>
        <mxCell id="Rh4NYGwO05SISdUezt3Q-39" style="rounded=0;orthogonalLoop=1;jettySize=auto;html=1;endArrow=none;endFill=0;" parent="1" source="Rh4NYGwO05SISdUezt3Q-34" target="Rh4NYGwO05SISdUezt3Q-26" edge="1">
          <mxGeometry relative="1" as="geometry" />
        </mxCell>
        <mxCell id="Rh4NYGwO05SISdUezt3Q-34" value="fechaReg" style="ellipse;whiteSpace=wrap;html=1;" parent="1" vertex="1">
          <mxGeometry x="420" y="1118.75" width="80" height="50" as="geometry" />
        </mxCell>
        <mxCell id="Rh4NYGwO05SISdUezt3Q-35" value="rangoEdad" style="ellipse;whiteSpace=wrap;html=1;" parent="1" vertex="1">
          <mxGeometry x="640" y="958.75" width="90" height="50" as="geometry" />
        </mxCell>
        <mxCell id="Rh4NYGwO05SISdUezt3Q-36" value="genero" style="ellipse;whiteSpace=wrap;html=1;" parent="1" vertex="1">
          <mxGeometry x="570" y="938.75" width="60" height="40" as="geometry" />
        </mxCell>
        <mxCell id="Rh4NYGwO05SISdUezt3Q-37" value="tel" style="ellipse;whiteSpace=wrap;html=1;" parent="1" vertex="1">
          <mxGeometry x="490" y="928.75" width="70" height="40" as="geometry" />
        </mxCell>
        <mxCell id="Rh4NYGwO05SISdUezt3Q-41" style="rounded=0;orthogonalLoop=1;jettySize=auto;html=1;endArrow=none;endFill=0;" parent="1" source="Rh4NYGwO05SISdUezt3Q-132" target="Rh4NYGwO05SISdUezt3Q-26" edge="1">
          <mxGeometry relative="1" as="geometry" />
        </mxCell>
        <mxCell id="Rh4NYGwO05SISdUezt3Q-43" style="rounded=0;orthogonalLoop=1;jettySize=auto;html=1;endArrow=none;endFill=0;" parent="1" source="Rh4NYGwO05SISdUezt3Q-37" target="Rh4NYGwO05SISdUezt3Q-26" edge="1">
          <mxGeometry relative="1" as="geometry">
            <mxPoint x="472" y="986.75" as="sourcePoint" />
            <mxPoint x="510" y="1040.75" as="targetPoint" />
          </mxGeometry>
        </mxCell>
        <mxCell id="Rh4NYGwO05SISdUezt3Q-44" style="rounded=0;orthogonalLoop=1;jettySize=auto;html=1;endArrow=none;endFill=0;" parent="1" source="Rh4NYGwO05SISdUezt3Q-36" target="Rh4NYGwO05SISdUezt3Q-26" edge="1">
          <mxGeometry relative="1" as="geometry">
            <mxPoint x="610" y="988.75" as="sourcePoint" />
            <mxPoint x="520" y="1050.75" as="targetPoint" />
          </mxGeometry>
        </mxCell>
        <mxCell id="Rh4NYGwO05SISdUezt3Q-45" style="rounded=0;orthogonalLoop=1;jettySize=auto;html=1;endArrow=none;endFill=0;" parent="1" source="Rh4NYGwO05SISdUezt3Q-35" target="Rh4NYGwO05SISdUezt3Q-26" edge="1">
          <mxGeometry relative="1" as="geometry">
            <mxPoint x="627" y="991.75" as="sourcePoint" />
            <mxPoint x="580" y="1038.75" as="targetPoint" />
          </mxGeometry>
        </mxCell>
        <mxCell id="Rh4NYGwO05SISdUezt3Q-46" style="rounded=0;orthogonalLoop=1;jettySize=auto;html=1;endArrow=none;endFill=0;" parent="1" source="Rh4NYGwO05SISdUezt3Q-26" target="Rh4NYGwO05SISdUezt3Q-33" edge="1">
          <mxGeometry relative="1" as="geometry">
            <mxPoint x="637" y="1001.75" as="sourcePoint" />
            <mxPoint x="590" y="1048.75" as="targetPoint" />
          </mxGeometry>
        </mxCell>
        <mxCell id="Rh4NYGwO05SISdUezt3Q-47" style="rounded=0;orthogonalLoop=1;jettySize=auto;html=1;endArrow=none;endFill=0;" parent="1" source="Rh4NYGwO05SISdUezt3Q-31" target="Rh4NYGwO05SISdUezt3Q-26" edge="1">
          <mxGeometry relative="1" as="geometry">
            <mxPoint x="647" y="1011.75" as="sourcePoint" />
            <mxPoint x="600" y="1058.75" as="targetPoint" />
          </mxGeometry>
        </mxCell>
        <mxCell id="Rh4NYGwO05SISdUezt3Q-48" style="rounded=0;orthogonalLoop=1;jettySize=auto;html=1;endArrow=none;endFill=0;" parent="1" source="Rh4NYGwO05SISdUezt3Q-26" target="Rh4NYGwO05SISdUezt3Q-32" edge="1">
          <mxGeometry relative="1" as="geometry">
            <mxPoint x="657" y="1021.75" as="sourcePoint" />
            <mxPoint x="610" y="1068.75" as="targetPoint" />
          </mxGeometry>
        </mxCell>
        <mxCell id="Rh4NYGwO05SISdUezt3Q-49" value="AsistenteVirtual" style="rounded=0;whiteSpace=wrap;html=1;" parent="1" vertex="1">
          <mxGeometry x="40" y="1018.75" width="120" height="60" as="geometry" />
        </mxCell>
        <mxCell id="Rh4NYGwO05SISdUezt3Q-50" value="nombre" style="ellipse;whiteSpace=wrap;html=1;" parent="1" vertex="1">
          <mxGeometry x="105" y="901.25" width="70" height="35" as="geometry" />
        </mxCell>
        <mxCell id="Rh4NYGwO05SISdUezt3Q-51" value="especificacionRol" style="ellipse;whiteSpace=wrap;html=1;" parent="1" vertex="1">
          <mxGeometry x="-80" y="1106.25" width="100" height="55" as="geometry" />
        </mxCell>
        <mxCell id="Rh4NYGwO05SISdUezt3Q-53" value="rol" style="ellipse;whiteSpace=wrap;html=1;" parent="1" vertex="1">
          <mxGeometry x="30" y="1131.25" width="50" height="35" as="geometry" />
        </mxCell>
        <mxCell id="Rh4NYGwO05SISdUezt3Q-54" style="rounded=0;orthogonalLoop=1;jettySize=auto;html=1;endArrow=none;endFill=0;" parent="1" source="Rh4NYGwO05SISdUezt3Q-55" target="Rh4NYGwO05SISdUezt3Q-49" edge="1">
          <mxGeometry relative="1" as="geometry" />
        </mxCell>
        <mxCell id="Rh4NYGwO05SISdUezt3Q-55" value="avatar" style="ellipse;whiteSpace=wrap;html=1;" parent="1" vertex="1">
          <mxGeometry x="-130" y="1078.75" width="70" height="35" as="geometry" />
        </mxCell>
        <mxCell id="Rh4NYGwO05SISdUezt3Q-56" value="&amp;nbsp; historiaDeFondo" style="ellipse;whiteSpace=wrap;html=1;" parent="1" vertex="1">
          <mxGeometry x="95" y="1131.25" width="100" height="55" as="geometry" />
        </mxCell>
        <mxCell id="Rh4NYGwO05SISdUezt3Q-57" value="genero" style="ellipse;whiteSpace=wrap;html=1;" parent="1" vertex="1">
          <mxGeometry x="20" y="893.75" width="80" height="45" as="geometry" />
        </mxCell>
        <mxCell id="Rh4NYGwO05SISdUezt3Q-59" style="rounded=0;orthogonalLoop=1;jettySize=auto;html=1;endArrow=none;endFill=0;" parent="1" source="Rh4NYGwO05SISdUezt3Q-50" target="Rh4NYGwO05SISdUezt3Q-49" edge="1">
          <mxGeometry relative="1" as="geometry" />
        </mxCell>
        <mxCell id="Rh4NYGwO05SISdUezt3Q-61" style="rounded=0;orthogonalLoop=1;jettySize=auto;html=1;endArrow=none;endFill=0;" parent="1" source="Rh4NYGwO05SISdUezt3Q-57" target="Rh4NYGwO05SISdUezt3Q-49" edge="1">
          <mxGeometry relative="1" as="geometry">
            <mxPoint x="337" y="1044.25" as="sourcePoint" />
            <mxPoint x="375" y="1098.25" as="targetPoint" />
          </mxGeometry>
        </mxCell>
        <mxCell id="Rh4NYGwO05SISdUezt3Q-62" style="rounded=0;orthogonalLoop=1;jettySize=auto;html=1;endArrow=none;endFill=0;" parent="1" source="Rh4NYGwO05SISdUezt3Q-56" target="Rh4NYGwO05SISdUezt3Q-49" edge="1">
          <mxGeometry relative="1" as="geometry">
            <mxPoint x="482" y="1039.25" as="sourcePoint" />
            <mxPoint x="435" y="1086.25" as="targetPoint" />
          </mxGeometry>
        </mxCell>
        <mxCell id="Rh4NYGwO05SISdUezt3Q-63" style="rounded=0;orthogonalLoop=1;jettySize=auto;html=1;endArrow=none;endFill=0;" parent="1" source="Rh4NYGwO05SISdUezt3Q-49" target="Rh4NYGwO05SISdUezt3Q-53" edge="1">
          <mxGeometry relative="1" as="geometry">
            <mxPoint x="492" y="1049.25" as="sourcePoint" />
            <mxPoint x="445" y="1096.25" as="targetPoint" />
          </mxGeometry>
        </mxCell>
        <mxCell id="Rh4NYGwO05SISdUezt3Q-64" style="rounded=0;orthogonalLoop=1;jettySize=auto;html=1;endArrow=none;endFill=0;" parent="1" source="Rh4NYGwO05SISdUezt3Q-51" target="Rh4NYGwO05SISdUezt3Q-49" edge="1">
          <mxGeometry relative="1" as="geometry">
            <mxPoint x="502" y="1059.25" as="sourcePoint" />
            <mxPoint x="455" y="1106.25" as="targetPoint" />
          </mxGeometry>
        </mxCell>
        <mxCell id="Rh4NYGwO05SISdUezt3Q-66" value="idioma" style="ellipse;shape=doubleEllipse;margin=3;whiteSpace=wrap;html=1;align=center;" parent="1" vertex="1">
          <mxGeometry x="165" y="933.75" width="100" height="40" as="geometry" />
        </mxCell>
        <mxCell id="Rh4NYGwO05SISdUezt3Q-68" style="rounded=0;orthogonalLoop=1;jettySize=auto;html=1;endArrow=none;endFill=0;" parent="1" source="Rh4NYGwO05SISdUezt3Q-66" target="Rh4NYGwO05SISdUezt3Q-49" edge="1">
          <mxGeometry relative="1" as="geometry">
            <mxPoint x="482" y="1039.25" as="sourcePoint" />
            <mxPoint x="435" y="1086.25" as="targetPoint" />
          </mxGeometry>
        </mxCell>
        <mxCell id="Rh4NYGwO05SISdUezt3Q-69" value="Idioma" style="rounded=0;whiteSpace=wrap;html=1;" parent="1" vertex="1">
          <mxGeometry x="350" y="513.75" width="120" height="60" as="geometry" />
        </mxCell>
        <mxCell id="Rh4NYGwO05SISdUezt3Q-70" value="id" style="ellipse;whiteSpace=wrap;html=1;align=center;fontStyle=4;" parent="1" vertex="1">
          <mxGeometry x="220" y="585.75" width="80" height="33" as="geometry" />
        </mxCell>
        <mxCell id="Rh4NYGwO05SISdUezt3Q-71" value="&lt;br&gt;&lt;span style=&quot;color: rgb(0, 0, 0); font-family: Helvetica; font-size: 12px; font-style: normal; font-variant-ligatures: normal; font-variant-caps: normal; font-weight: 400; letter-spacing: normal; orphans: 2; text-align: center; text-indent: 0px; text-transform: none; widows: 2; word-spacing: 0px; -webkit-text-stroke-width: 0px; white-space: normal; background-color: rgb(251, 251, 251); float: none; display: inline !important;&quot;&gt;nombre&lt;/span&gt;&lt;div&gt;&lt;br/&gt;&lt;/div&gt;" style="ellipse;whiteSpace=wrap;html=1;" parent="1" vertex="1">
          <mxGeometry x="500" y="598.75" width="50" height="35" as="geometry" />
        </mxCell>
        <mxCell id="Rh4NYGwO05SISdUezt3Q-72" style="rounded=0;orthogonalLoop=1;jettySize=auto;html=1;endArrow=none;endFill=0;" parent="1" source="Rh4NYGwO05SISdUezt3Q-69" target="Rh4NYGwO05SISdUezt3Q-71" edge="1">
          <mxGeometry relative="1" as="geometry">
            <mxPoint x="275" y="411.75" as="sourcePoint" />
            <mxPoint x="318" y="427.75" as="targetPoint" />
          </mxGeometry>
        </mxCell>
        <mxCell id="Rh4NYGwO05SISdUezt3Q-73" style="rounded=0;orthogonalLoop=1;jettySize=auto;html=1;endArrow=none;endFill=0;" parent="1" source="Rh4NYGwO05SISdUezt3Q-70" target="Rh4NYGwO05SISdUezt3Q-69" edge="1">
          <mxGeometry relative="1" as="geometry">
            <mxPoint x="285" y="421.75" as="sourcePoint" />
            <mxPoint x="328" y="437.75" as="targetPoint" />
          </mxGeometry>
        </mxCell>
        <mxCell id="Rh4NYGwO05SISdUezt3Q-74" value="Voz" style="rounded=0;whiteSpace=wrap;html=1;" parent="1" vertex="1">
          <mxGeometry x="-652.5" y="435" width="120" height="60" as="geometry" />
        </mxCell>
        <mxCell id="Rh4NYGwO05SISdUezt3Q-75" value="tipo" style="ellipse;whiteSpace=wrap;html=1;" parent="1" vertex="1">
          <mxGeometry x="-627.5" y="358.75" width="70" height="37.5" as="geometry" />
        </mxCell>
        <mxCell id="Rh4NYGwO05SISdUezt3Q-78" value="tono" style="ellipse;whiteSpace=wrap;html=1;" parent="1" vertex="1">
          <mxGeometry x="-552.5" y="378.75" width="70" height="35" as="geometry" />
        </mxCell>
        <mxCell id="Rh4NYGwO05SISdUezt3Q-80" style="rounded=0;orthogonalLoop=1;jettySize=auto;html=1;endArrow=none;endFill=0;" parent="1" source="Rh4NYGwO05SISdUezt3Q-74" target="Rh4NYGwO05SISdUezt3Q-131" edge="1">
          <mxGeometry relative="1" as="geometry">
            <mxPoint x="-980.5" y="314.25" as="sourcePoint" />
            <mxPoint x="-487.3851305860737" y="460.26462521212943" as="targetPoint" />
          </mxGeometry>
        </mxCell>
        <mxCell id="Rh4NYGwO05SISdUezt3Q-83" style="rounded=0;orthogonalLoop=1;jettySize=auto;html=1;endArrow=none;endFill=0;" parent="1" source="Rh4NYGwO05SISdUezt3Q-78" target="Rh4NYGwO05SISdUezt3Q-74" edge="1">
          <mxGeometry relative="1" as="geometry">
            <mxPoint x="-602.5" y="534.25" as="sourcePoint" />
            <mxPoint x="-688.5" y="560.25" as="targetPoint" />
          </mxGeometry>
        </mxCell>
        <mxCell id="Rh4NYGwO05SISdUezt3Q-84" style="rounded=0;orthogonalLoop=1;jettySize=auto;html=1;endArrow=none;endFill=0;" parent="1" source="Rh4NYGwO05SISdUezt3Q-75" target="Rh4NYGwO05SISdUezt3Q-74" edge="1">
          <mxGeometry relative="1" as="geometry">
            <mxPoint x="-742.7292116813412" y="486.38016361033556" as="sourcePoint" />
            <mxPoint x="-678.5" y="570.25" as="targetPoint" />
          </mxGeometry>
        </mxCell>
        <mxCell id="Rh4NYGwO05SISdUezt3Q-123" value="Rasgo" style="rounded=0;whiteSpace=wrap;html=1;" parent="1" vertex="1">
          <mxGeometry x="-720" y="877.5" width="120" height="60" as="geometry" />
        </mxCell>
        <mxCell id="Rh4NYGwO05SISdUezt3Q-124" value="img" style="ellipse;whiteSpace=wrap;html=1;" parent="1" vertex="1">
          <mxGeometry x="-870" y="908.75" width="70" height="37.5" as="geometry" />
        </mxCell>
        <mxCell id="Rh4NYGwO05SISdUezt3Q-125" value="nombre" style="ellipse;whiteSpace=wrap;html=1;" parent="1" vertex="1">
          <mxGeometry x="-805" y="975" width="80" height="45" as="geometry" />
        </mxCell>
        <mxCell id="Rh4NYGwO05SISdUezt3Q-127" style="rounded=0;orthogonalLoop=1;jettySize=auto;html=1;endArrow=none;endFill=0;" parent="1" source="Rh4NYGwO05SISdUezt3Q-123" target="Rh4NYGwO05SISdUezt3Q-130" edge="1">
          <mxGeometry relative="1" as="geometry">
            <mxPoint x="-1078" y="735.5" as="sourcePoint" />
            <mxPoint x="-1115" y="798.5" as="targetPoint" />
          </mxGeometry>
        </mxCell>
        <mxCell id="Rh4NYGwO05SISdUezt3Q-128" style="rounded=0;orthogonalLoop=1;jettySize=auto;html=1;endArrow=none;endFill=0;" parent="1" source="Rh4NYGwO05SISdUezt3Q-125" target="Rh4NYGwO05SISdUezt3Q-123" edge="1">
          <mxGeometry relative="1" as="geometry">
            <mxPoint x="-763.8749260766356" y="976.7119083108491" as="sourcePoint" />
            <mxPoint x="-786" y="981.5" as="targetPoint" />
          </mxGeometry>
        </mxCell>
        <mxCell id="Rh4NYGwO05SISdUezt3Q-129" style="rounded=0;orthogonalLoop=1;jettySize=auto;html=1;endArrow=none;endFill=0;" parent="1" source="Rh4NYGwO05SISdUezt3Q-124" target="Rh4NYGwO05SISdUezt3Q-123" edge="1">
          <mxGeometry relative="1" as="geometry">
            <mxPoint x="-840.2292116813412" y="907.6301636103356" as="sourcePoint" />
            <mxPoint x="-776" y="991.5" as="targetPoint" />
          </mxGeometry>
        </mxCell>
        <mxCell id="Rh4NYGwO05SISdUezt3Q-130" value="id" style="ellipse;whiteSpace=wrap;html=1;align=center;fontStyle=4;" parent="1" vertex="1">
          <mxGeometry x="-800" y="820" width="70" height="40" as="geometry" />
        </mxCell>
        <mxCell id="Rh4NYGwO05SISdUezt3Q-131" value="idVoz" style="ellipse;whiteSpace=wrap;html=1;align=center;fontStyle=4;" parent="1" vertex="1">
          <mxGeometry x="-507.5" y="443.13" width="80" height="40" as="geometry" />
        </mxCell>
        <mxCell id="Rh4NYGwO05SISdUezt3Q-132" value="correo" style="ellipse;whiteSpace=wrap;html=1;align=center;fontStyle=4;" parent="1" vertex="1">
          <mxGeometry x="420" y="946.25" width="70" height="40" as="geometry" />
        </mxCell>
        <mxCell id="Rh4NYGwO05SISdUezt3Q-135" value="&lt;div&gt;Interes&lt;/div&gt;&lt;div&gt;&lt;br&gt;&lt;/div&gt;" style="rounded=0;whiteSpace=wrap;html=1;" parent="1" vertex="1">
          <mxGeometry x="-772.5" y="640" width="120" height="60" as="geometry" />
        </mxCell>
        <mxCell id="Rh4NYGwO05SISdUezt3Q-136" value="img" style="ellipse;whiteSpace=wrap;html=1;" parent="1" vertex="1">
          <mxGeometry x="-870" y="683.75" width="70" height="37.5" as="geometry" />
        </mxCell>
        <mxCell id="Rh4NYGwO05SISdUezt3Q-137" value="nombre" style="ellipse;whiteSpace=wrap;html=1;" parent="1" vertex="1">
          <mxGeometry x="-860" y="595" width="70" height="35" as="geometry" />
        </mxCell>
        <mxCell id="Rh4NYGwO05SISdUezt3Q-139" style="rounded=0;orthogonalLoop=1;jettySize=auto;html=1;endArrow=none;endFill=0;" parent="1" source="Rh4NYGwO05SISdUezt3Q-137" target="Rh4NYGwO05SISdUezt3Q-135" edge="1">
          <mxGeometry relative="1" as="geometry">
            <mxPoint x="-725" y="740.5" as="sourcePoint" />
            <mxPoint x="-811" y="766.5" as="targetPoint" />
          </mxGeometry>
        </mxCell>
        <mxCell id="Rh4NYGwO05SISdUezt3Q-140" style="rounded=0;orthogonalLoop=1;jettySize=auto;html=1;endArrow=none;endFill=0;" parent="1" source="Rh4NYGwO05SISdUezt3Q-136" target="Rh4NYGwO05SISdUezt3Q-135" edge="1">
          <mxGeometry relative="1" as="geometry">
            <mxPoint x="-865.2292116813412" y="692.6301636103356" as="sourcePoint" />
            <mxPoint x="-801" y="776.5" as="targetPoint" />
          </mxGeometry>
        </mxCell>
        <mxCell id="Rh4NYGwO05SISdUezt3Q-142" value="Apariencia" style="rounded=0;whiteSpace=wrap;html=1;" parent="1" vertex="1">
          <mxGeometry x="-290" y="376.25" width="120" height="60" as="geometry" />
        </mxCell>
        <mxCell id="Rh4NYGwO05SISdUezt3Q-143" value="img" style="ellipse;whiteSpace=wrap;html=1;" parent="1" vertex="1">
          <mxGeometry x="-110" y="317.5" width="60" height="35" as="geometry" />
        </mxCell>
        <mxCell id="Rh4NYGwO05SISdUezt3Q-144" value="desc" style="ellipse;whiteSpace=wrap;html=1;" parent="1" vertex="1">
          <mxGeometry x="-300" y="291.25" width="60" height="30" as="geometry" />
        </mxCell>
        <mxCell id="Rh4NYGwO05SISdUezt3Q-145" style="rounded=0;orthogonalLoop=1;jettySize=auto;html=1;endArrow=none;endFill=0;" parent="1" source="Rh4NYGwO05SISdUezt3Q-142" target="Rh4NYGwO05SISdUezt3Q-148" edge="1">
          <mxGeometry relative="1" as="geometry">
            <mxPoint x="-648" y="224.25" as="sourcePoint" />
            <mxPoint x="-685" y="287.25" as="targetPoint" />
          </mxGeometry>
        </mxCell>
        <mxCell id="Rh4NYGwO05SISdUezt3Q-146" style="rounded=0;orthogonalLoop=1;jettySize=auto;html=1;endArrow=none;endFill=0;" parent="1" source="Rh4NYGwO05SISdUezt3Q-144" target="Rh4NYGwO05SISdUezt3Q-142" edge="1">
          <mxGeometry relative="1" as="geometry">
            <mxPoint x="-270" y="444.25" as="sourcePoint" />
            <mxPoint x="-356" y="470.25" as="targetPoint" />
          </mxGeometry>
        </mxCell>
        <mxCell id="Rh4NYGwO05SISdUezt3Q-147" style="rounded=0;orthogonalLoop=1;jettySize=auto;html=1;endArrow=none;endFill=0;" parent="1" source="Rh4NYGwO05SISdUezt3Q-143" target="Rh4NYGwO05SISdUezt3Q-142" edge="1">
          <mxGeometry relative="1" as="geometry">
            <mxPoint x="-410.2292116813412" y="396.38016361033556" as="sourcePoint" />
            <mxPoint x="-346" y="480.25" as="targetPoint" />
          </mxGeometry>
        </mxCell>
        <mxCell id="Rh4NYGwO05SISdUezt3Q-148" value="id" style="ellipse;whiteSpace=wrap;html=1;align=center;fontStyle=4;" parent="1" vertex="1">
          <mxGeometry x="-350" y="321.25" width="50" height="27.5" as="geometry" />
        </mxCell>
        <mxCell id="Rh4NYGwO05SISdUezt3Q-149" value="categorÃ­a" style="ellipse;shape=doubleEllipse;margin=3;whiteSpace=wrap;html=1;align=center;" parent="1" vertex="1">
          <mxGeometry x="-220" y="281.25" width="100" height="40" as="geometry" />
        </mxCell>
        <mxCell id="Rh4NYGwO05SISdUezt3Q-150" style="rounded=0;orthogonalLoop=1;jettySize=auto;html=1;endArrow=none;endFill=0;" parent="1" source="Rh4NYGwO05SISdUezt3Q-149" target="Rh4NYGwO05SISdUezt3Q-142" edge="1">
          <mxGeometry relative="1" as="geometry">
            <mxPoint x="-302" y="302.25" as="sourcePoint" />
            <mxPoint x="-241" y="386.25" as="targetPoint" />
          </mxGeometry>
        </mxCell>
        <mxCell id="Rh4NYGwO05SISdUezt3Q-151" value="Ropa" style="rounded=0;whiteSpace=wrap;html=1;" parent="1" vertex="1">
          <mxGeometry x="90" y="386.25" width="120" height="60" as="geometry" />
        </mxCell>
        <mxCell id="Rh4NYGwO05SISdUezt3Q-153" value="desc" style="ellipse;whiteSpace=wrap;html=1;" parent="1" vertex="1">
          <mxGeometry x="120" y="311.25" width="60" height="30" as="geometry" />
        </mxCell>
        <mxCell id="Rh4NYGwO05SISdUezt3Q-154" style="rounded=0;orthogonalLoop=1;jettySize=auto;html=1;endArrow=none;endFill=0;" parent="1" source="Rh4NYGwO05SISdUezt3Q-151" target="Rh4NYGwO05SISdUezt3Q-157" edge="1">
          <mxGeometry relative="1" as="geometry">
            <mxPoint x="-268" y="234.25" as="sourcePoint" />
            <mxPoint x="-305" y="297.25" as="targetPoint" />
          </mxGeometry>
        </mxCell>
        <mxCell id="Rh4NYGwO05SISdUezt3Q-155" style="rounded=0;orthogonalLoop=1;jettySize=auto;html=1;endArrow=none;endFill=0;" parent="1" source="Rh4NYGwO05SISdUezt3Q-153" target="Rh4NYGwO05SISdUezt3Q-151" edge="1">
          <mxGeometry relative="1" as="geometry">
            <mxPoint x="110" y="454.25" as="sourcePoint" />
            <mxPoint x="24" y="480.25" as="targetPoint" />
          </mxGeometry>
        </mxCell>
        <mxCell id="Rh4NYGwO05SISdUezt3Q-157" value="id" style="ellipse;whiteSpace=wrap;html=1;align=center;fontStyle=4;" parent="1" vertex="1">
          <mxGeometry x="30" y="331.25" width="50" height="27.5" as="geometry" />
        </mxCell>
        <mxCell id="Rh4NYGwO05SISdUezt3Q-158" value="categorÃ­a" style="ellipse;shape=doubleEllipse;margin=3;whiteSpace=wrap;html=1;align=center;" parent="1" vertex="1">
          <mxGeometry x="210" y="325" width="100" height="40" as="geometry" />
        </mxCell>
        <mxCell id="Rh4NYGwO05SISdUezt3Q-159" style="rounded=0;orthogonalLoop=1;jettySize=auto;html=1;endArrow=none;endFill=0;" parent="1" source="Rh4NYGwO05SISdUezt3Q-158" target="Rh4NYGwO05SISdUezt3Q-151" edge="1">
          <mxGeometry relative="1" as="geometry">
            <mxPoint x="78" y="312.25" as="sourcePoint" />
            <mxPoint x="139" y="396.25" as="targetPoint" />
          </mxGeometry>
        </mxCell>
        <mxCell id="3TIy69d771nKiDWh88w1-1" value="Tiene" style="rhombus;whiteSpace=wrap;html=1;" vertex="1" parent="1">
          <mxGeometry x="280" y="1020" width="80" height="80" as="geometry" />
        </mxCell>
        <mxCell id="3TIy69d771nKiDWh88w1-4" style="rounded=0;orthogonalLoop=1;jettySize=auto;html=1;endArrow=none;endFill=0;" edge="1" parent="1" source="3TIy69d771nKiDWh88w1-1" target="Rh4NYGwO05SISdUezt3Q-49">
          <mxGeometry relative="1" as="geometry">
            <mxPoint x="270" y="1008" as="sourcePoint" />
            <mxPoint x="170" y="1040" as="targetPoint" />
          </mxGeometry>
        </mxCell>
        <mxCell id="3TIy69d771nKiDWh88w1-5" style="rounded=0;orthogonalLoop=1;jettySize=auto;html=1;endArrow=none;endFill=0;" edge="1" parent="1" source="Rh4NYGwO05SISdUezt3Q-26" target="3TIy69d771nKiDWh88w1-1">
          <mxGeometry relative="1" as="geometry">
            <mxPoint x="280" y="1018" as="sourcePoint" />
            <mxPoint x="180" y="1050" as="targetPoint" />
          </mxGeometry>
        </mxCell>
        <mxCell id="3TIy69d771nKiDWh88w1-6" value="1:1" style="text;html=1;align=center;verticalAlign=middle;whiteSpace=wrap;rounded=0;" vertex="1" parent="1">
          <mxGeometry x="155" y="1027.5" width="45" height="31.25" as="geometry" />
        </mxCell>
        <mxCell id="3TIy69d771nKiDWh88w1-7" value="1:n" style="text;html=1;align=center;verticalAlign=middle;whiteSpace=wrap;rounded=0;" vertex="1" parent="1">
          <mxGeometry x="425" y="1028.75" width="45" height="31.25" as="geometry" />
        </mxCell>
        <mxCell id="3TIy69d771nKiDWh88w1-9" value="Sabe" style="rhombus;whiteSpace=wrap;html=1;" vertex="1" parent="1">
          <mxGeometry x="240" y="731.25" width="80" height="80" as="geometry" />
        </mxCell>
        <mxCell id="3TIy69d771nKiDWh88w1-10" style="rounded=0;orthogonalLoop=1;jettySize=auto;html=1;endArrow=none;endFill=0;" edge="1" parent="1" source="3TIy69d771nKiDWh88w1-9" target="Rh4NYGwO05SISdUezt3Q-49">
          <mxGeometry relative="1" as="geometry">
            <mxPoint x="280" y="730.5" as="sourcePoint" />
            <mxPoint x="170" y="774.5" as="targetPoint" />
          </mxGeometry>
        </mxCell>
        <mxCell id="3TIy69d771nKiDWh88w1-11" style="rounded=0;orthogonalLoop=1;jettySize=auto;html=1;endArrow=none;endFill=0;" edge="1" parent="1" target="3TIy69d771nKiDWh88w1-9" source="Rh4NYGwO05SISdUezt3Q-69">
          <mxGeometry relative="1" as="geometry">
            <mxPoint x="490" y="781.5" as="sourcePoint" />
            <mxPoint x="190" y="772.5" as="targetPoint" />
          </mxGeometry>
        </mxCell>
        <mxCell id="3TIy69d771nKiDWh88w1-12" value="1:n" style="text;html=1;align=center;verticalAlign=middle;whiteSpace=wrap;rounded=0;" vertex="1" parent="1">
          <mxGeometry x="190" y="800" width="45" height="31.25" as="geometry" />
        </mxCell>
        <mxCell id="3TIy69d771nKiDWh88w1-13" value="1:n" style="text;html=1;align=center;verticalAlign=middle;whiteSpace=wrap;rounded=0;" vertex="1" parent="1">
          <mxGeometry x="275" y="690" width="45" height="31.25" as="geometry" />
        </mxCell>
        <mxCell id="3TIy69d771nKiDWh88w1-28" style="rounded=0;orthogonalLoop=1;jettySize=auto;html=1;endArrow=none;endFill=0;" edge="1" parent="1" target="3TIy69d771nKiDWh88w1-29" source="Rh4NYGwO05SISdUezt3Q-135">
          <mxGeometry relative="1" as="geometry">
            <mxPoint x="-790.0009825066691" y="490" as="sourcePoint" />
            <mxPoint x="-731.9201173467859" y="604.7442001575266" as="targetPoint" />
          </mxGeometry>
        </mxCell>
        <mxCell id="3TIy69d771nKiDWh88w1-29" value="id" style="ellipse;whiteSpace=wrap;html=1;align=center;fontStyle=4;" vertex="1" parent="1">
          <mxGeometry x="-750" y="573" width="70" height="40" as="geometry" />
        </mxCell>
        <mxCell id="3TIy69d771nKiDWh88w1-51" value="ConfigAvatar" style="rounded=0;whiteSpace=wrap;html=1;" vertex="1" parent="1">
          <mxGeometry x="-345" y="705.62" width="120" height="60" as="geometry" />
        </mxCell>
        <mxCell id="3TIy69d771nKiDWh88w1-54" style="rounded=0;orthogonalLoop=1;jettySize=auto;html=1;endArrow=none;endFill=0;" edge="1" parent="1" source="3TIy69d771nKiDWh88w1-51" target="3TIy69d771nKiDWh88w1-57">
          <mxGeometry relative="1" as="geometry">
            <mxPoint x="-673" y="584.87" as="sourcePoint" />
            <mxPoint x="-179.88513058607373" y="730.8846252121294" as="targetPoint" />
          </mxGeometry>
        </mxCell>
        <mxCell id="3TIy69d771nKiDWh88w1-57" value="idConfig" style="ellipse;whiteSpace=wrap;html=1;align=center;fontStyle=4;" vertex="1" parent="1">
          <mxGeometry x="-196" y="713.75" width="80" height="40" as="geometry" />
        </mxCell>
        <mxCell id="3TIy69d771nKiDWh88w1-58" value="configRasgo" style="rhombus;whiteSpace=wrap;html=1;" vertex="1" parent="1">
          <mxGeometry x="-505" y="800" width="80" height="80" as="geometry" />
        </mxCell>
        <mxCell id="3TIy69d771nKiDWh88w1-59" style="rounded=0;orthogonalLoop=1;jettySize=auto;html=1;endArrow=none;endFill=0;" edge="1" parent="1" source="3TIy69d771nKiDWh88w1-58" target="Rh4NYGwO05SISdUezt3Q-123">
          <mxGeometry relative="1" as="geometry">
            <mxPoint x="-515" y="788" as="sourcePoint" />
            <mxPoint x="-625" y="832" as="targetPoint" />
          </mxGeometry>
        </mxCell>
        <mxCell id="3TIy69d771nKiDWh88w1-60" style="rounded=0;orthogonalLoop=1;jettySize=auto;html=1;endArrow=none;endFill=0;" edge="1" parent="1" target="3TIy69d771nKiDWh88w1-58" source="3TIy69d771nKiDWh88w1-51">
          <mxGeometry relative="1" as="geometry">
            <mxPoint x="-305" y="839" as="sourcePoint" />
            <mxPoint x="-605" y="830" as="targetPoint" />
          </mxGeometry>
        </mxCell>
        <mxCell id="3TIy69d771nKiDWh88w1-61" value="1:1" style="text;html=1;align=center;verticalAlign=middle;whiteSpace=wrap;rounded=0;" vertex="1" parent="1">
          <mxGeometry x="-577.5" y="836.88" width="45" height="31.25" as="geometry" />
        </mxCell>
        <mxCell id="3TIy69d771nKiDWh88w1-62" value="1:n" style="text;html=1;align=center;verticalAlign=middle;whiteSpace=wrap;rounded=0;" vertex="1" parent="1">
          <mxGeometry x="-425" y="765.62" width="45" height="31.25" as="geometry" />
        </mxCell>
        <mxCell id="3TIy69d771nKiDWh88w1-63" value="configInteres" style="rhombus;whiteSpace=wrap;html=1;" vertex="1" parent="1">
          <mxGeometry x="-518" y="629.75" width="80" height="80" as="geometry" />
        </mxCell>
        <mxCell id="3TIy69d771nKiDWh88w1-64" style="rounded=0;orthogonalLoop=1;jettySize=auto;html=1;endArrow=none;endFill=0;" edge="1" parent="1" source="3TIy69d771nKiDWh88w1-63" target="Rh4NYGwO05SISdUezt3Q-135">
          <mxGeometry relative="1" as="geometry">
            <mxPoint x="-528" y="617.75" as="sourcePoint" />
            <mxPoint x="-613" y="716" as="targetPoint" />
          </mxGeometry>
        </mxCell>
        <mxCell id="3TIy69d771nKiDWh88w1-65" style="rounded=0;orthogonalLoop=1;jettySize=auto;html=1;endArrow=none;endFill=0;" edge="1" parent="1" target="3TIy69d771nKiDWh88w1-63" source="3TIy69d771nKiDWh88w1-51">
          <mxGeometry relative="1" as="geometry">
            <mxPoint x="-350" y="595" as="sourcePoint" />
            <mxPoint x="-618" y="659.75" as="targetPoint" />
          </mxGeometry>
        </mxCell>
        <mxCell id="3TIy69d771nKiDWh88w1-66" value="1:1" style="text;html=1;align=center;verticalAlign=middle;whiteSpace=wrap;rounded=0;" vertex="1" parent="1">
          <mxGeometry x="-590.5" y="666.63" width="45" height="31.25" as="geometry" />
        </mxCell>
        <mxCell id="3TIy69d771nKiDWh88w1-67" value="1:n" style="text;html=1;align=center;verticalAlign=middle;whiteSpace=wrap;rounded=0;" vertex="1" parent="1">
          <mxGeometry x="-425" y="697.88" width="45" height="31.25" as="geometry" />
        </mxCell>
        <mxCell id="3TIy69d771nKiDWh88w1-68" value="configVoz" style="rhombus;whiteSpace=wrap;html=1;" vertex="1" parent="1">
          <mxGeometry x="-457.5" y="529.75" width="80" height="80" as="geometry" />
        </mxCell>
        <mxCell id="3TIy69d771nKiDWh88w1-69" style="rounded=0;orthogonalLoop=1;jettySize=auto;html=1;endArrow=none;endFill=0;" edge="1" parent="1" source="3TIy69d771nKiDWh88w1-68" target="Rh4NYGwO05SISdUezt3Q-74">
          <mxGeometry relative="1" as="geometry">
            <mxPoint x="-467.5" y="517.75" as="sourcePoint" />
            <mxPoint x="-552.5" y="616" as="targetPoint" />
          </mxGeometry>
        </mxCell>
        <mxCell id="3TIy69d771nKiDWh88w1-70" style="rounded=0;orthogonalLoop=1;jettySize=auto;html=1;endArrow=none;endFill=0;" edge="1" parent="1" target="3TIy69d771nKiDWh88w1-68" source="3TIy69d771nKiDWh88w1-51">
          <mxGeometry relative="1" as="geometry">
            <mxPoint x="-289.5" y="495" as="sourcePoint" />
            <mxPoint x="-557.5" y="559.75" as="targetPoint" />
          </mxGeometry>
        </mxCell>
        <mxCell id="3TIy69d771nKiDWh88w1-71" value="1:1" style="text;html=1;align=center;verticalAlign=middle;whiteSpace=wrap;rounded=0;" vertex="1" parent="1">
          <mxGeometry x="-470" y="521.25" width="45" height="31.25" as="geometry" />
        </mxCell>
        <mxCell id="3TIy69d771nKiDWh88w1-72" value="1:n" style="text;html=1;align=center;verticalAlign=middle;whiteSpace=wrap;rounded=0;" vertex="1" parent="1">
          <mxGeometry x="-395" y="581.75" width="45" height="31.25" as="geometry" />
        </mxCell>
        <mxCell id="3TIy69d771nKiDWh88w1-73" value="configApariencia" style="rhombus;whiteSpace=wrap;html=1;" vertex="1" parent="1">
          <mxGeometry x="-325" y="495" width="110" height="106.25" as="geometry" />
        </mxCell>
        <mxCell id="3TIy69d771nKiDWh88w1-74" style="rounded=0;orthogonalLoop=1;jettySize=auto;html=1;endArrow=none;endFill=0;" edge="1" parent="1" source="3TIy69d771nKiDWh88w1-73" target="3TIy69d771nKiDWh88w1-51">
          <mxGeometry relative="1" as="geometry">
            <mxPoint x="-228" y="517.75" as="sourcePoint" />
            <mxPoint x="-313" y="616" as="targetPoint" />
          </mxGeometry>
        </mxCell>
        <mxCell id="3TIy69d771nKiDWh88w1-75" style="rounded=0;orthogonalLoop=1;jettySize=auto;html=1;endArrow=none;endFill=0;" edge="1" parent="1" target="3TIy69d771nKiDWh88w1-73" source="Rh4NYGwO05SISdUezt3Q-142">
          <mxGeometry relative="1" as="geometry">
            <mxPoint x="-50" y="495" as="sourcePoint" />
            <mxPoint x="-318" y="559.75" as="targetPoint" />
          </mxGeometry>
        </mxCell>
        <mxCell id="3TIy69d771nKiDWh88w1-76" value="1:1" style="text;html=1;align=center;verticalAlign=middle;whiteSpace=wrap;rounded=0;" vertex="1" parent="1">
          <mxGeometry x="-252.5" y="490" width="45" height="31.25" as="geometry" />
        </mxCell>
        <mxCell id="3TIy69d771nKiDWh88w1-77" value="1:n" style="text;html=1;align=center;verticalAlign=middle;whiteSpace=wrap;rounded=0;" vertex="1" parent="1">
          <mxGeometry x="-270" y="596.88" width="45" height="31.25" as="geometry" />
        </mxCell>
        <mxCell id="3TIy69d771nKiDWh88w1-78" value="configRopa" style="rhombus;whiteSpace=wrap;html=1;" vertex="1" parent="1">
          <mxGeometry x="-88" y="556" width="80" height="80" as="geometry" />
        </mxCell>
        <mxCell id="3TIy69d771nKiDWh88w1-79" style="rounded=0;orthogonalLoop=1;jettySize=auto;html=1;endArrow=none;endFill=0;" edge="1" parent="1" source="3TIy69d771nKiDWh88w1-78" target="3TIy69d771nKiDWh88w1-51">
          <mxGeometry relative="1" as="geometry">
            <mxPoint x="-98" y="544" as="sourcePoint" />
            <mxPoint x="-183" y="642.25" as="targetPoint" />
          </mxGeometry>
        </mxCell>
        <mxCell id="3TIy69d771nKiDWh88w1-80" style="rounded=0;orthogonalLoop=1;jettySize=auto;html=1;endArrow=none;endFill=0;" edge="1" parent="1" target="3TIy69d771nKiDWh88w1-78" source="Rh4NYGwO05SISdUezt3Q-151">
          <mxGeometry relative="1" as="geometry">
            <mxPoint x="80" y="521.25" as="sourcePoint" />
            <mxPoint x="-188" y="586" as="targetPoint" />
          </mxGeometry>
        </mxCell>
        <mxCell id="3TIy69d771nKiDWh88w1-81" value="1:1" style="text;html=1;align=center;verticalAlign=middle;whiteSpace=wrap;rounded=0;" vertex="1" parent="1">
          <mxGeometry x="-45" y="529.75" width="45" height="31.25" as="geometry" />
        </mxCell>
        <mxCell id="3TIy69d771nKiDWh88w1-82" value="1:n" style="text;html=1;align=center;verticalAlign=middle;whiteSpace=wrap;rounded=0;" vertex="1" parent="1">
          <mxGeometry x="-137.5" y="595" width="45" height="31.25" as="geometry" />
        </mxCell>
        <mxCell id="3TIy69d771nKiDWh88w1-84" value="configura" style="rhombus;whiteSpace=wrap;html=1;" vertex="1" parent="1">
          <mxGeometry x="-92.5" y="901.88" width="80" height="80" as="geometry" />
        </mxCell>
        <mxCell id="3TIy69d771nKiDWh88w1-85" style="rounded=0;orthogonalLoop=1;jettySize=auto;html=1;endArrow=none;endFill=0;" edge="1" parent="1" source="3TIy69d771nKiDWh88w1-84" target="3TIy69d771nKiDWh88w1-51">
          <mxGeometry relative="1" as="geometry">
            <mxPoint x="-145.6216398226611" y="912.6216398226611" as="sourcePoint" />
            <mxPoint x="-383" y="982.5" as="targetPoint" />
          </mxGeometry>
        </mxCell>
        <mxCell id="3TIy69d771nKiDWh88w1-86" style="rounded=0;orthogonalLoop=1;jettySize=auto;html=1;endArrow=none;endFill=0;" edge="1" parent="1" target="3TIy69d771nKiDWh88w1-84" source="Rh4NYGwO05SISdUezt3Q-49">
          <mxGeometry relative="1" as="geometry">
            <mxPoint x="-100" y="780.25" as="sourcePoint" />
            <mxPoint x="-368" y="845" as="targetPoint" />
          </mxGeometry>
        </mxCell>
        <mxCell id="3TIy69d771nKiDWh88w1-87" value="1:1" style="text;html=1;align=center;verticalAlign=middle;whiteSpace=wrap;rounded=0;" vertex="1" parent="1">
          <mxGeometry x="-110" y="870" width="45" height="31.25" as="geometry" />
        </mxCell>
        <mxCell id="3TIy69d771nKiDWh88w1-88" value="1:n" style="text;html=1;align=center;verticalAlign=middle;whiteSpace=wrap;rounded=0;" vertex="1" parent="1">
          <mxGeometry x="-12.5" y="950.63" width="45" height="31.25" as="geometry" />
        </mxCell>
      </root>
    </mxGraphModel>
  </diagram>
</mxfile>
